<svg width="182" height="81" viewBox="0 0 182 81" fill="none" xmlns="http://www.w3.org/2000/svg">
<g clip-path="url(#clip0_116_487)">
<path d="M35.6842 18.7237V0.264587H27.5148V26.8931H54.0889V18.7237H35.6842Z" fill="#F8FAF7"/>
<path fill-rule="evenodd" clip-rule="evenodd" d="M0.903427 32.5931H27.5091V59.4963H19.3339V40.7682H9.07855V48.743H0.903427V32.5931Z" fill="#6ECF97"/>
<path d="M43.081 51.2754V38.8367H39.1551V55.2041H53.3306V51.2754H43.081Z" fill="#F8FAF7"/>
<path d="M63.9008 51.8792C61.2053 51.8792 59.0421 49.7131 59.0421 47.0433C59.0421 44.3736 61.2082 42.1846 63.9008 42.1846C66.5934 42.1846 68.7366 44.3765 68.7366 47.0433C68.7366 49.7102 66.5705 51.8792 63.9008 51.8792ZM63.9008 38.4075C59.1165 38.4075 55.265 42.2848 55.265 47.0433C55.265 51.8019 59.1165 55.6563 63.9008 55.6563C68.6851 55.6563 72.5137 51.8048 72.5137 47.0433C72.5137 42.2819 68.6622 38.4075 63.9008 38.4075Z" fill="#F8FAF7"/>
<path d="M87.8395 50.2195C86.529 51.3269 85.4989 51.8562 83.8622 51.8562C81.1924 51.8562 79.0263 49.6901 79.0263 47.0204C79.0263 44.3507 81.1924 42.1617 83.8622 42.1617C85.4989 42.1617 86.7322 42.817 87.8395 43.8242L90.8097 41.9099C89.2474 39.7695 86.7064 38.3846 83.8593 38.3846C79.1007 38.3846 75.2464 42.2619 75.2464 47.0204C75.2464 51.779 79.0979 55.6333 83.8593 55.6333C86.7036 55.6333 89.2474 54.2742 90.8097 52.1338L87.8395 50.2195Z" fill="#F8FAF7"/>
<path d="M105.764 38.8367V46.8688C105.764 49.4383 103.949 51.5787 101.457 51.5787C98.9648 51.5787 97.1249 49.4383 97.1249 46.8688V38.8367H93.1218V46.8688C93.1218 52.131 96.7987 55.6305 101.457 55.6305C106.116 55.6305 109.767 52.131 109.767 46.8688V38.8367H105.764Z" fill="#F8FAF7"/>
<path d="M126.271 38.8367V38.8625V38.8367L121.564 48.1021L116.932 38.9111V38.8367H112.977V55.2041H116.932V46.9203L120.709 55.2041H122.42L126.271 46.843V55.2041H130.2V38.8367H126.271Z" fill="#F8FAF7"/>
<path d="M46.6063 72.3327H43.2813V67.4482H46.6549C47.9883 67.474 49.0471 68.5556 49.0471 69.8919C49.0471 71.2282 47.9655 72.3355 46.6034 72.3355L46.6063 72.3327ZM53.1046 69.5142C52.9272 66.3151 50.6123 63.4451 47.2386 63.4451H39.281V79.8125H43.2841V76.3387H46.6578C50.0829 76.3387 52.9014 73.6432 53.1046 70.2696V69.5142Z" fill="#F8FAF7"/>
<path d="M60.3354 67.474H63.6833C65.0167 67.474 66.1012 68.5556 66.1012 69.8919C66.1012 71.2282 64.9938 72.1324 63.6576 72.1324H60.3326V67.474H60.3354ZM70.8369 79.8125L67.2372 74.8765C68.9741 73.9437 70.1587 72.2583 70.1587 69.8919C70.1587 66.3151 67.6407 63.4451 64.2928 63.4451H56.3351V79.8125H60.3383V75.7321H63.2083L65.9038 79.8125H70.8398H70.8369Z" fill="#F8FAF7"/>
<path d="M80.9721 76.4875C78.2766 76.4875 76.1134 74.3214 76.1134 71.6517C76.1134 68.982 78.2795 66.793 80.9721 66.793C83.6647 66.793 85.8079 68.9848 85.8079 71.6517C85.8079 74.3185 83.6418 76.4875 80.9721 76.4875ZM80.9721 63.0159C76.1878 63.0159 72.3363 66.8931 72.3363 71.6517C72.3363 76.4102 76.1878 80.2646 80.9721 80.2646C85.7564 80.2646 89.585 76.4131 89.585 71.6517C89.585 66.8903 85.7335 63.0159 80.9721 63.0159Z" fill="#F8FAF7"/>
<path d="M102.871 63.4451L98.3868 73.4658L93.88 63.4451H89.399L96.4239 79.8125H100.353L107.352 63.4451H102.871Z" fill="#F8FAF7"/>
<path d="M112.76 63.4451H108.831V79.8125H112.76V63.4451Z" fill="#F8FAF7"/>
<path d="M124.978 75.8837H120.772V67.3738H124.978C127.044 67.3738 128.855 69.1622 128.855 71.603C128.855 74.0438 127.018 75.8093 124.978 75.8837ZM124.6 63.4451H116.846V79.8125H124.6C129.133 79.8125 132.784 76.1355 132.784 71.603C132.784 67.0705 129.611 63.4451 124.6 63.4451Z" fill="#F8FAF7"/>
<path d="M147.644 66.9704V63.4451H135.331V79.8125H147.644V76.3129H139.257V73.3914H145.881V69.8919H139.257V66.9704H147.644Z" fill="#F8FAF7"/>
<path d="M155.02 67.474H158.368C159.702 67.474 160.786 68.5556 160.786 69.8919C160.786 71.2282 159.679 72.1324 158.342 72.1324H155.017V67.474H155.02ZM165.519 79.8125L161.919 74.8765C163.656 73.9437 164.841 72.2583 164.841 69.8919C164.841 66.3151 162.323 63.4451 158.975 63.4451H151.017V79.8125H155.02V75.7321H157.89L160.586 79.8125H165.522H165.519Z" fill="#F8FAF7"/>
<path d="M173.871 80.2417C177.774 80.2417 181.099 77.8753 181.099 75.0539C181.099 70.7217 176.793 70.1695 174.501 69.7402C173.594 69.5886 171.05 69.5886 171.05 68.2552C171.05 67.1478 172.235 66.2665 173.668 66.2665C175.809 66.2665 176.49 67.122 176.49 67.5255H180.544C180.544 65.3336 178.278 62.993 173.671 62.993C169.894 62.993 166.798 65.3594 166.798 68.2552C166.798 71.3512 170.046 72.2097 171.96 72.5874C173.042 72.8134 176.844 72.9651 176.844 75.0539C176.844 76.0612 175.434 76.994 173.874 76.994C170.979 76.994 170.801 74.7792 170.801 74.7535H166.546C166.546 76.9682 168.864 80.2417 173.874 80.2417H173.871Z" fill="#F8FAF7"/>
</g>
<defs>
<clipPath id="clip0_116_487">
<rect width="180.193" height="80" fill="white" transform="translate(0.903427 0.264587)"/>
</clipPath>
</defs>
</svg>