<svg width="18" height="19" viewBox="0 0 18 19" fill="none" xmlns="http://www.w3.org/2000/svg">
<g clip-path="url(#clip0_109_510)">
<path d="M17.0053 0.529175H0.994737C0.445263 0.529175 0 0.974438 0 1.52391V17.5344C0 18.0839 0.445263 18.5292 0.994737 18.5292H9.61579V11.5818H7.26316V8.84391H9.60316V6.84496C9.60316 4.5176 11.0211 3.25128 13.0958 3.25128C13.8 3.25444 14.5042 3.29233 15.2053 3.37128V5.7997H13.7716C12.6442 5.7997 12.4263 6.33339 12.4263 7.1197V8.85654H15.1263L14.7758 11.5818H12.4263V18.5292H17.0053C17.5547 18.5292 18 18.0839 18 17.5344V1.52391C18 0.974438 17.5547 0.529175 17.0053 0.529175Z" fill="#191C1B"/>
</g>
<defs>
<clipPath id="clip0_109_510">
<rect width="18" height="18" fill="white" transform="translate(0 0.529175)"/>
</clipPath>
</defs>
</svg>