<svg width="18" height="19" viewBox="0 0 18 19" fill="none" xmlns="http://www.w3.org/2000/svg">
<g clip-path="url(#clip0_109_512)">
<path fill-rule="evenodd" clip-rule="evenodd" d="M9 2.15076C11.4033 2.15076 11.6876 2.16005 12.6369 2.20328C13.5143 2.24329 13.9909 2.38977 14.3081 2.51302C14.7282 2.67629 15.028 2.87135 15.3431 3.18609C15.6582 3.50119 15.8532 3.80093 16.0162 4.22106C16.1394 4.53831 16.2859 5.01489 16.3259 5.89231C16.3691 6.84118 16.3784 7.12592 16.3784 9.52918C16.3784 11.9324 16.3691 12.2168 16.3259 13.1661C16.2859 14.0435 16.1394 14.5201 16.0162 14.8373C15.8529 15.2574 15.6578 15.5572 15.3431 15.8723C15.028 16.1874 14.7282 16.3824 14.3081 16.5453C13.9909 16.6686 13.5143 16.8151 12.6369 16.8551C11.688 16.8983 11.4033 16.9076 9 16.9076C6.59674 16.9076 6.312 16.8983 5.36313 16.8551C4.48571 16.8151 4.00913 16.6686 3.69189 16.5453C3.27175 16.3821 2.97202 16.187 2.65692 15.8723C2.34182 15.5572 2.14675 15.2574 1.98384 14.8373C1.86059 14.5201 1.71412 14.0435 1.6741 13.1661C1.63088 12.2172 1.62159 11.9324 1.62159 9.52918C1.62159 7.12592 1.63088 6.84154 1.6741 5.89231C1.71412 5.01489 1.86059 4.53831 1.98384 4.22106C2.14711 3.80093 2.34217 3.50119 2.65692 3.18609C2.97202 2.87099 3.27175 2.67593 3.69189 2.51302C4.00913 2.38977 4.48571 2.24329 5.36313 2.20328C6.31236 2.16005 6.59674 2.15076 9 2.15076ZM9 0.529175C6.55565 0.529175 6.24913 0.539535 5.28918 0.583478C4.33138 0.627063 3.67724 0.779254 3.10456 1.00183C2.51258 1.2319 2.01064 1.5395 1.51048 2.04001C1.01032 2.54017 0.702366 3.04212 0.47265 3.63373C0.250079 4.20642 0.0978882 4.86055 0.054303 5.81836C0.0103604 6.77831 0 7.08483 0 9.52918C0 11.9735 0.0103604 12.2801 0.054303 13.24C0.0978882 14.1978 0.250079 14.8519 0.47265 15.4246C0.702723 16.0166 1.01032 16.5186 1.51084 17.0187C2.01135 17.5192 2.51294 17.8268 3.10491 18.0569C3.67724 18.2795 4.33173 18.4317 5.28954 18.4752C6.24948 18.5192 6.55601 18.5295 9.00036 18.5295C11.4447 18.5295 11.7512 18.5192 12.7112 18.4752C13.669 18.4317 14.3235 18.2795 14.8958 18.0569C15.4878 17.8268 15.9897 17.5192 16.4899 17.0187C16.9904 16.5182 17.298 16.0166 17.5281 15.4246C17.7506 14.8523 17.9028 14.1978 17.9464 13.24C17.9904 12.2801 18.0007 11.9735 18.0007 9.52918C18.0007 7.08483 17.9904 6.77831 17.9464 5.81836C17.9028 4.86055 17.7506 4.20606 17.5281 3.63373C17.298 3.04176 16.9904 2.53981 16.4899 2.03966C15.9894 1.53914 15.4878 1.23154 14.8958 1.00147C14.3228 0.779254 13.6686 0.627063 12.7108 0.583478C11.7509 0.539535 11.4443 0.529175 9 0.529175ZM9.0003 4.90767C6.4477 4.90767 4.37883 6.97689 4.37883 9.52913C4.37883 12.0814 6.44806 14.1506 9.0003 14.1506C11.5525 14.1506 13.6218 12.0814 13.6218 9.52913C13.6218 6.97689 11.5529 4.90767 9.0003 4.90767ZM9.0003 12.529C7.34335 12.529 6.00042 11.1857 6.00042 9.52913C6.00042 7.87218 7.3437 6.52925 9.0003 6.52925C10.6569 6.52925 12.0002 7.87254 12.0002 9.52913C12.0002 11.1861 10.6573 12.529 9.0003 12.529ZM14.8844 4.72472C14.8844 5.32118 14.4009 5.80471 13.8044 5.80471C13.208 5.80471 12.7245 5.32118 12.7245 4.72472C12.7245 4.12826 13.208 3.64473 13.8044 3.64473C14.4009 3.64473 14.8844 4.12826 14.8844 4.72472Z" fill="#191C1B"/>
</g>
<defs>
<clipPath id="clip0_109_512">
<rect width="18" height="18" fill="white" transform="translate(0 0.529175)"/>
</clipPath>
</defs>
</svg>