<svg width="18" height="19" viewBox="0 0 18 19" fill="none" xmlns="http://www.w3.org/2000/svg">
<path d="M5.66064 16.8426C12.4531 16.8426 16.1683 11.2151 16.1683 6.33493C16.1683 6.17509 16.1683 6.01597 16.1575 5.85757C16.8803 5.33479 17.5042 4.68748 18 3.94597C17.326 4.24463 16.611 4.44049 15.8789 4.52701C16.6498 4.06548 17.2268 3.33957 17.5025 2.48437C16.7776 2.91454 15.9845 3.2177 15.1574 3.38077C14.6006 2.7887 13.8642 2.39665 13.0621 2.26528C12.2601 2.13392 11.4371 2.27056 10.7205 2.65406C10.0039 3.03756 9.43367 3.64655 9.09806 4.38678C8.76245 5.12701 8.68016 5.95722 8.86392 6.74893C7.39566 6.67532 5.95929 6.29377 4.64806 5.62904C3.33683 4.9643 2.18004 4.03125 1.2528 2.89045C0.780546 3.70345 0.635904 4.66587 0.848325 5.58177C1.06075 6.49766 1.61426 7.29817 2.39616 7.82029C1.80845 7.80287 1.23356 7.64433 0.72 7.35805C0.72 7.37317 0.72 7.38901 0.72 7.40485C0.720233 8.25749 1.01539 9.0838 1.5554 9.74362C2.09542 10.4035 2.84705 10.8562 3.6828 11.025C3.13911 11.1733 2.56866 11.195 2.01528 11.0884C2.25127 11.8222 2.7107 12.4639 3.32933 12.9237C3.94796 13.3835 4.69484 13.6385 5.46552 13.653C4.15781 14.6808 2.54236 15.2387 0.87912 15.237C0.58529 15.2364 0.291747 15.2187 0 15.1837C1.68886 16.2675 3.65394 16.8424 5.66064 16.8397" fill="#191C1B"/>
</svg>